<?xml version="1.0" encoding="utf-8"?>
<!-- Generator: Adobe Illustrator 18.1.1, SVG Export Plug-In . SVG Version: 6.00 Build 0)  -->
<!DOCTYPE svg PUBLIC "-//W3C//DTD SVG 1.1//EN" "http://www.w3.org/Graphics/SVG/1.1/DTD/svg11.dtd">
<svg version="1.1" id="Layer_1" xmlns="http://www.w3.org/2000/svg" xmlns:xlink="http://www.w3.org/1999/xlink" x="0px" y="0px"
	 viewBox="346.5 256.5 99 99" enable-background="new 346.5 256.5 99 99" xml:space="preserve">
<g>
	<path fill="#A63F38" d="M378.9,354.2c0.3-0.3,30.5-29.1,17.4-75.6l-1.4,0.4c12.9,45.5-16.7,73.8-17,74L378.9,354.2L378.9,354.2z
		 M394.1,336.6c0,0,11.7,3,15.7-9.5C409.9,327.3,397.5,324.6,394.1,336.6z M414.5,310.1c0,0-0.3,13.6-15.2,12
		C399.4,322,400.2,309.8,414.5,310.1z M401.3,306.3c0,0,11.7,1.8,13.3-15.4C414.6,290.9,400.3,290.2,401.3,306.3z M401.2,288.5
		c0,0,13.3-5.7,5.4-22.2C406.7,266.3,395.2,274.2,401.2,288.5z M396,277.5c0,0,7.5-12.8-5.2-19.7C390.7,257.8,382.3,265.6,396,277.5
		z M389.4,334.8c0,0,2.5-12.4-11.6-15.6C377.7,319.4,374.3,332,389.4,334.8z M393.8,319.9c0,0,0.9-12.8-12.9-16.8
		C381.1,303.1,380.1,320.3,393.8,319.9z M395.6,305c0,0,0.3-14.7-14.1-15.3C381.7,289.8,386.4,306.7,395.6,305z M394.2,288.4
		c0,0,0.4-11.4-12.7-13.6C381.7,274.9,381.9,287.6,394.2,288.4z"/>
</g>
</svg>
